<?xml version="1.0" encoding="UTF-8" standalone="no"?>
<svg
        xmlns:dc="http://purl.org/dc/elements/1.1/"
        xmlns:cc="http://creativecommons.org/ns#"
        xmlns:rdf="http://www.w3.org/1999/02/22-rdf-syntax-ns#"
        xmlns="http://www.w3.org/2000/svg"
        id="svg8"
        version="1.1"
        viewBox="0 0 210 297"
        height="297mm"
        width="210mm">
    <defs
            id="defs2"/>
    <metadata
            id="metadata5">
        <rdf:RDF>
            <cc:Work
                    rdf:about="">
                <dc:format>image/svg+xml</dc:format>
                <dc:type
                        rdf:resource="http://purl.org/dc/dcmitype/StillImage"/>
                <dc:title></dc:title>
            </cc:Work>
        </rdf:RDF>
    </metadata>
    <g
            id="layer1">
        <path
                id="path91"
                d="m 95.854766,241.13705 c -8.69099,-0.80964 -18.35874,-3.3157 -26.63406,-6.90407 -39.32363,-17.05157 -60.6075303,-59.5873 -50.78898,-101.50143 4.85399,-20.72107 16.67944,-38.205241 34.99296,-51.737824 4.58795,-3.39022 12.5731,-7.641909 19.05519,-10.145931 18.44312,-7.124544 39.817444,-7.759325 58.652674,-1.741884 10.80071,3.450589 21.19343,9.216714 30.15354,16.729888 7.53482,6.318052 13.20976,13.016134 19.16045,22.614911 3.1183,5.02998 7.56358,15.69098 9.24173,22.16418 1.16225,4.48325 2.32961,12.10185 2.64246,17.24573 1.35553,22.28733 -5.7155,44.16037 -19.92318,61.629 -1.91587,2.35561 -8.68819,9.14354 -11.28889,11.3149 -13.40713,11.19388 -28.89957,17.87387 -46.50998,20.05408 -3.89667,0.48242 -14.822964,0.64465 -18.753914,0.27845 z m -35.07768,-40.78956 c -0.44898,-0.44898 -0.50825,-4.88829 -0.0717,-5.3683 0.50108,-0.55092 1.1063,-3.52164 1.1063,-5.43024 0,-1.35065 -0.12856,-1.78406 -0.52917,-1.78406 -0.38917,0 -0.52916,0.4055 -0.52916,1.53282 0,1.04305 -0.20842,1.72144 -0.65227,2.12312 -0.57438,0.5198 -0.64269,1.09071 -0.57211,4.78138 0.0852,4.45442 0.22371,5.05933 1.083,4.72959 0.38379,-0.14727 0.43189,-0.31751 0.16509,-0.58431 z m -18.56925,-0.19541 c 0.10633,-0.17204 -0.0431,-0.50898 -0.33196,-0.74875 -0.2889,-0.23977 -0.52528,-0.71036 -0.52528,-1.04576 0,-0.3354 -0.39687,-1.35624 -0.88194,-2.26853 -0.48507,-0.91229 -0.88195,-2.12656 -0.88195,-2.69837 0,-1.22282 -0.35476,-1.32962 -0.99757,-0.30032 -0.38835,0.62186 -0.37528,0.83487 0.0822,1.34043 0.29919,0.33059 0.78831,1.30757 1.08694,2.17107 0.67133,1.94114 1.66857,3.86304 2.00446,3.86304 0.13845,0 0.33873,-0.14076 0.44506,-0.31281 z m 21.13967,-3.10559 c -0.46152,-2.20175 -0.44439,-2.52957 0.25538,-4.88674 0.93384,-3.14566 0.82479,-4.16089 -0.27286,-2.54018 -0.66171,0.97705 -0.7801,1.65858 -0.81153,4.67171 -0.0398,3.81607 0.18339,5.11527 0.87878,5.11527 0.35312,0 0.34284,-0.48708 -0.0498,-2.36006 z m 61.797804,0.50798 c -0.31132,-4.09443 -0.77327,-6.10048 -1.72139,-7.47531 -0.57166,-0.82893 -0.86462,-1.61203 -0.72588,-1.94028 0.12795,-0.30271 0.36438,-1.10601 0.52542,-1.7851 0.16103,-0.6791 0.40174,-1.69201 0.5349,-2.25091 0.18622,-0.78162 0.12879,-0.97853 -0.2488,-0.85311 -0.52788,0.17534 -0.88123,1.10936 -1.19478,3.15815 -0.2376,1.55247 -1.09785,2.0313 -1.63316,0.90905 -0.20643,-0.43274 -0.83065,-1.15113 -1.38718,-1.59644 -0.95439,-0.76366 -1.07172,-0.77868 -2.06588,-0.26458 -1.27636,0.66003 -2.01815,0.69228 -2.39445,0.10409 -0.15516,-0.24254 -0.55913,-0.65819 -0.89771,-0.92368 -0.52541,-0.41199 -0.74324,-0.39907 -1.48689,0.0882 -1.53034,1.00271 -2.62145,0.74999 -3.24683,-0.75202 -0.30295,-0.72761 -0.73141,-1.43955 -0.95214,-1.5821 -0.75453,-0.48729 -1.63604,-0.28428 -1.63604,0.37677 0,0.35572 -0.11907,0.76582 -0.26459,0.91135 -0.14552,0.14552 -0.2647,0.44979 -0.26485,0.67615 -1.5e-4,0.23597 -0.57962,0.42703 -1.35817,0.44779 -1.28448,0.0343 -1.97543,0.52787 -1.98755,1.4199 -0.009,0.69627 -1.02628,1.27561 -1.86808,1.06433 -0.50923,-0.12781 -1.042114,-0.7223 -1.424664,-1.58935 -0.89149,-2.02061 -2.48813,-3.73751 -3.21599,-3.4582 -0.55703,0.21375 -0.55609,0.29504 0.0146,1.26107 1.07667,1.82265 -0.35283,4.66466 -1.86613,3.7101 -0.45333,-0.28595 -0.74351,-0.22483 -1.22672,0.25839 -0.77541,0.7754 -1.64771,0.49876 -2.08925,-0.66258 -0.46154,-1.21393 -1.18501,-0.81703 -1.31502,0.72142 -0.0927,1.0966 -0.23777,1.29565 -0.94453,1.29565 -0.8948,0 -2.29001,-1.46819 -2.30809,-2.42883 -0.008,-0.44853 -0.0956,-0.41963 -0.40969,0.13577 -0.21943,0.38806 -0.61482,0.83438 -0.87864,0.99183 -0.26382,0.15744 -0.38759,0.43525 -0.27505,0.61736 0.11254,0.1821 -0.11477,0.33109 -0.50515,0.33109 -0.93503,0 -2.50686,0.72786 -2.50686,1.16084 0,0.34406 2.25771,0.16635 3.7976,-0.29891 0.63814,-0.1928 0.75546,-0.12796 0.58276,0.32208 -0.14702,0.38314 0.0736,0.69552 0.68925,0.97604 0.92511,0.42151 0.93963,1.01495 0.0248,1.01495 -0.27959,0 -0.50834,-0.23812 -0.50834,-0.52916 0,-0.39198 -0.41158,-0.52917 -1.5875,-0.52917 -1.36916,0 -1.5875,0.10023 -1.5875,0.72875 0,0.40081 0.17198,1.05009 0.38217,1.44285 0.2102,0.39275 0.38218,1.41419 0.38218,2.26986 0,0.85567 0.14552,1.55576 0.32338,1.55576 0.17786,0 0.32581,0.27781 0.32878,0.61736 0.005,0.52852 0.0554,0.54122 0.35278,0.0882 0.30878,-0.47037 0.38956,-0.47037 0.72701,0 0.30799,0.4293 0.41555,0.43949 0.56996,0.054 0.10468,-0.26134 0.64822,-0.99667 1.20786,-1.63408 0.55965,-0.6374 1.01755,-1.31695 1.01755,-1.51011 0,-0.19317 0.22926,-0.54148 0.50947,-0.77403 0.28021,-0.23256 0.55802,-1.00606 0.61736,-1.71889 0.10302,-1.23764 0.18741,-1.31568 1.87178,-1.73113 0.97014,-0.23928 1.96232,-0.70619 2.20486,-1.03757 0.24254,-0.33137 0.44857,-0.53247 0.45786,-0.44688 0.009,0.0856 0.0907,1.0034 0.18103,2.03956 0.0903,1.03617 0.3383,2.20937 0.55116,2.60711 0.49019,0.91591 0.11489,3.93506 -0.63056,5.07276 -0.51895,0.79202 -0.50971,0.84314 0.15256,0.84314 0.47486,0 0.78452,-0.3167 0.94859,-0.97014 0.28889,-1.15059 0.86917,-5.19455 1.10026,-7.66773 0.0904,-0.96728 0.38954,-1.9839 0.6648,-2.25916 0.4321,-0.4321 0.49981,-0.33643 0.4957,0.70037 -0.002,0.66045 0.0661,2.91052 0.15273,5.00015 0.0944,2.27752 0.0191,3.88485 -0.188,4.01284 -0.36666,0.22662 0.33349,0.81601 0.9806,0.82549 0.22036,0.003 0.40351,-1.16614 0.455,-2.90502 0.0976,-3.29455 0.34741,-5.07775 0.84654,-6.04208 0.244734,-0.47282 0.209154,-0.74481 -0.12441,-0.95096 -1.15121,-0.71149 0.246204,-0.71353 2.495494,-0.004 3.35551,1.05902 6.45964,1.10144 8.3503,0.11413 1.47401,-0.76973 2.20484,-0.70589 1.50956,0.13187 -0.54249,0.65366 -0.0974,1.17625 1.66646,1.95648 0.9366,0.4143 1.54638,0.91798 1.55319,1.28294 0.0104,0.55802 0.0446,0.55684 0.47986,-0.0165 0.53813,-0.7089 1.96346,-0.83406 2.00869,-0.17639 0.0167,0.24253 0.16776,-0.0183 0.33575,-0.5796 0.2172,-0.72576 0.14998,-1.3212 -0.23272,-2.06126 -0.82609,-1.59749 -0.34194,-1.54866 1.37177,0.13836 1.72899,1.70205 2.27016,2.14434 3.29449,2.69255 0.52554,0.28126 0.80937,1.03507 1.14758,3.0479 0.24715,1.47082 0.34881,2.99102 0.22591,3.37821 -0.1732,0.54572 -0.0624,0.70398 0.49311,0.70398 0.64709,0 0.70289,-0.1795 0.57571,-1.85209 z m -40.688664,-5.82083 c 0.0654,-0.33955 0.43204,-0.61736 0.81479,-0.61736 0.38274,0 0.74939,0.27781 0.81478,0.61736 0.089,0.4624 -0.11546,0.61736 -0.81478,0.61736 -0.69933,0 -0.90384,-0.15496 -0.81479,-0.61736 z m 87.040314,6.52639 c 0.16996,-0.43657 0.54874,-2.38125 0.84174,-4.32153 l 0.53274,-3.52778 -1.0257,-1.46878 c -1.15527,-1.65435 -1.3439,-3.47052 -0.47249,-4.54921 0.52595,-0.65105 0.5421,-0.63265 0.32782,0.37355 -0.28604,1.34311 0.37577,0.77546 0.71976,-0.61737 0.28458,-1.15228 -0.12448,-1.239 -1.248,-0.26458 -0.98069,0.85055 -1.19852,0.86775 -1.91508,0.15119 -0.81051,-0.81051 -0.67958,-1.82194 0.37199,-2.87351 0.83286,-0.83285 0.86847,-0.96869 0.35278,-1.34577 -0.31547,-0.23068 -0.57358,-0.67973 -0.57358,-0.99788 0,-0.31816 -0.23812,-0.57847 -0.52917,-0.57847 -0.63128,0 -0.69562,-0.75077 -0.11416,-1.33222 0.31814,-0.31815 0.27698,-0.56751 -0.17639,-1.06847 -1.45819,-1.61128 0.0934,-2.33309 1.6896,-0.78601 0.60719,0.58852 1.34249,1.07003 1.634,1.07003 0.83294,0 1.37668,0.7524 1.37668,1.905 0,0.71084 0.1167,0.94163 0.35544,0.70289 0.60503,-0.60503 -0.93037,-4.85046 -2.0468,-5.65944 -1.98579,-1.43893 -2.94881,-1.61577 -6.73392,-1.23656 -1.9542,0.19579 -3.71546,0.45633 -3.91391,0.57898 -0.76666,0.47382 -0.36656,1.65158 0.69752,2.05323 0.81033,0.30586 1.05833,0.61923 1.05833,1.33727 0,0.51579 -0.23812,1.13542 -0.52916,1.37696 -0.68766,0.57071 -0.67177,1.37438 0.0428,2.16395 0.76656,0.84704 0.39626,1.64287 -1.04456,2.24488 -0.65345,0.27303 -1.45309,0.90086 -1.77698,1.39518 -0.70654,1.07831 -1.77304,1.14929 -3.194,0.21259 -0.78569,-0.51793 -1.19563,-0.59497 -1.70771,-0.32091 -0.472,0.25261 -0.97918,0.23414 -1.6933,-0.0617 -0.56072,-0.23226 -1.42197,-0.32127 -1.91391,-0.1978 -0.73872,0.18541 -0.95487,0.0655 -1.24157,-0.68856 -0.6184,-1.62649 -0.40662,-2.17586 1.23973,-3.21597 1.30135,-0.82215 1.58785,-1.19295 1.59232,-2.06086 0.003,-0.58209 0.0972,-1.40022 0.20927,-1.81808 0.15135,-0.56416 0.0139,-0.82002 -0.53399,-0.99391 -0.40579,-0.12879 -0.73781,-0.4616 -0.73781,-0.73956 0,-0.27797 -0.15875,-0.5054 -0.35277,-0.5054 -0.19403,0 -0.35278,-0.29592 -0.35278,-0.6576 0,-0.5149 -0.3552,-0.70629 -1.63674,-0.88195 -2.03623,-0.27909 -6.12437,-0.29428 -6.12437,-0.0228 0,0.53176 1.28531,1.38591 2.08549,1.38591 1.1018,0 1.40131,1.01102 0.57123,1.92824 -0.54476,0.60196 -0.51273,0.68901 0.52558,1.42835 0.87332,0.62186 1.06156,0.96314 0.89572,1.62391 -0.14337,0.57123 0.0821,1.27796 0.71096,2.22818 0.69972,1.05735 0.86573,1.64286 0.69117,2.43764 -0.19957,0.90864 -0.0649,1.17179 1.02561,2.00353 1.41552,1.07968 1.48736,1.29691 0.69192,2.09235 -0.67463,0.67463 -0.41249,1.59404 0.46416,1.62794 1.25095,0.0484 2.77405,0.30091 4.19532,0.69555 1.2122,0.3366 1.93593,0.2847 4.40972,-0.31622 1.62773,-0.3954 3.71357,-0.81644 4.6352,-0.93566 1.8574,-0.24026 2.13088,-0.68681 0.79375,-1.29605 -0.82438,-0.37562 -1.21055,-0.99635 -0.61736,-0.99237 0.77796,0.005 3.89974,2.87664 4.61531,4.24516 0.45263,0.86565 1.20669,2.07925 1.6757,2.69689 0.71384,0.94007 0.85274,1.52565 0.85274,3.59515 0,1.35969 -0.15875,2.57028 -0.35278,2.69019 -0.46008,0.28435 -0.45495,0.88195 0.008,0.88195 0.19819,0 0.49939,-0.35719 0.66935,-0.79375 z m -6.20584,-16.2563 c -1.25107,-1.32709 -1.37955,-1.63521 -1.31516,-3.15369 0.0392,-0.9256 0.16149,-1.91779 0.27166,-2.20486 0.26336,-0.68632 1.28077,-0.67459 1.28077,0.0148 0,0.2952 0.39884,0.71845 0.88631,0.94056 0.81704,0.37227 0.86911,0.5336 0.66611,2.0639 -0.14112,1.06379 -0.0793,1.74714 0.17201,1.90248 0.21573,0.13333 0.39223,0.53356 0.39223,0.8894 0,1.21542 -0.95451,1.03191 -2.35393,-0.45256 z m -17.01571,15.72713 c 0.0182,-0.53358 0.004,-2.47083 -0.0308,-4.30501 -0.0521,-2.72088 -0.19194,-3.49764 -0.75935,-4.21898 -0.46453,-0.59056 -0.65984,-1.29737 -0.58822,-2.12868 0.083,-0.96311 -0.0343,-1.27181 -0.51867,-1.36508 -0.56154,-0.10815 -0.61025,0.12716 -0.47374,2.28853 0.0837,1.325 0.46699,3.20283 0.85178,4.17297 0.71282,1.79716 0.95314,5.31959 0.38681,5.6696 -0.56159,0.34707 -0.3275,0.85679 0.39347,0.85679 0.52648,0 0.71396,-0.24623 0.73869,-0.97014 z m -29.7231,-0.28118 c 0.22518,-0.4942 0.40941,-1.36412 0.40941,-1.93314 0,-0.56903 0.258,-1.67939 0.57333,-2.46748 0.31533,-0.78809 0.48464,-1.52158 0.37624,-1.62997 -0.35116,-0.35116 -0.94957,0.24924 -0.94957,0.95273 0,0.3766 -0.21847,0.68473 -0.48548,0.68473 -0.32627,0 -0.54802,0.60742 -0.67617,1.85209 -0.10487,1.01864 -0.30179,2.20927 -0.4376,2.64583 -0.35429,1.13885 0.66407,1.04916 1.18984,-0.10479 z m 48.49442,-0.60077 c 0.29722,-0.63059 0.81668,-1.8609 1.15437,-2.73402 0.33768,-0.87313 0.75861,-1.77579 0.93538,-2.00593 0.39789,-0.51796 -0.31815,-1.98731 -0.81792,-1.67843 -0.19219,0.11878 -0.25136,0.52495 -0.13149,0.90262 0.13457,0.424 -0.12983,1.28006 -0.69121,2.23799 -0.50003,0.85323 -0.90914,1.77946 -0.90914,2.0583 0,0.27883 -0.32902,0.92525 -0.73116,1.43648 -0.71525,0.9093 -0.71613,0.92952 -0.0402,0.92952 0.43351,0 0.89232,-0.42719 1.23137,-1.14653 z m -22.13593,-0.17638 c 0.14948,-0.33955 0.32318,-2.2133 0.38599,-4.16389 0.11285,-3.5043 0.10162,-3.56101 -0.94245,-4.7625 l -1.05666,-1.21598 0.21273,1.05834 c 0.11701,0.58208 0.45496,1.72673 0.751,2.54367 0.4005,1.10515 0.47335,2.09158 0.28463,3.85384 -0.13951,1.30267 -0.33441,2.57896 -0.43311,2.83619 -0.27014,0.70396 0.48437,0.56243 0.79787,-0.14967 z M 38.611246,191.99822 c 0.96856,-1.94778 3.66755,-4.73032 4.90123,-5.05293 1.00982,-0.26407 0.78666,0.24008 -0.42241,0.9543 -0.59552,0.35178 -1.02119,0.70117 -0.94593,0.77643 0.33137,0.33136 7.64963,1.7094 9.08424,1.71057 1.64815,10e-4 6.65731,-0.69476 6.92488,-0.96232 0.084,-0.084 -0.13006,-0.6503 -0.47567,-1.25847 l -0.62838,-1.10575 1.17387,-1.10213 c 0.92219,-0.86582 1.12729,-1.28773 0.9566,-1.9678 -0.15368,-0.61234 0.0894,-1.36402 0.83045,-2.56846 0.70638,-1.14801 0.97972,-1.96282 0.83899,-2.50098 -0.15713,-0.60089 0.0408,-0.99723 0.80086,-1.60324 0.97776,-0.77964 0.98969,-0.82702 0.37835,-1.50254 -0.87812,-0.97032 -0.60804,-1.98474 0.52843,-1.98474 1.18345,0 2.30491,-0.87277 1.6529,-1.28637 -1.04172,-0.66081 -6.98406,-0.1271 -6.98406,0.62727 0,0.64742 -1.42642,2.2466 -2.0039,2.2466 -0.25605,0 -0.46554,0.23813 -0.46554,0.52917 0,0.29104 0.17641,0.52917 0.39204,0.52917 0.25425,0 0.31349,0.41867 0.16855,1.19129 -0.19651,1.04745 -0.0776,1.31941 0.98488,2.25226 0.66461,0.58354 1.36797,1.11902 1.56302,1.18996 0.50113,0.18226 0.59705,0.99818 0.27684,2.35472 -0.25045,1.06102 -0.36714,1.14728 -1.28059,0.94665 -0.55276,-0.12141 -1.34309,-0.0398 -1.75628,0.18131 -0.5264,0.28173 -1.05549,0.296 -1.76778,0.0477 -0.81895,-0.28549 -1.17688,-0.22823 -1.84154,0.29458 -1.44552,1.13706 -2.53155,1.06166 -3.20436,-0.22246 -0.27203,-0.51918 -1.0084,-1.10846 -1.65313,-1.32292 -1.59094,-0.52918 -2.08576,-1.38167 -1.30363,-2.24591 0.73254,-0.80945 0.75506,-1.79003 0.0621,-2.70614 -0.82041,-1.08468 -0.61288,-1.78509 0.71678,-2.41916 1.21879,-0.58121 1.47513,-1.08721 0.96057,-1.89618 -0.14484,-0.22771 -1.90852,-0.59505 -3.9193,-0.81631 l -3.65595,-0.40229 -1.98106,0.9927 c -1.75473,0.87929 -2.05668,1.19422 -2.64299,2.75659 -0.36406,0.97014 -0.7216,2.31951 -0.79454,2.99861 -0.14234,1.32535 0.021,1.12998 0.36692,-0.43882 0.14392,-0.65275 0.5848,-1.12517 1.35378,-1.45062 0.62719,-0.26545 1.44276,-0.82204 1.81238,-1.23687 0.36962,-0.41484 0.96992,-0.75425 1.33399,-0.75425 1.0369,0 1.1661,0.97482 0.2369,1.78739 -0.57095,0.49927 -0.69352,0.78482 -0.39084,0.91051 0.64202,0.26661 0.54485,1.53544 -0.1176,1.53544 -0.30721,0 -0.48667,0.19843 -0.39881,0.44097 0.0879,0.24253 -0.0847,0.72148 -0.38347,1.06432 -0.49397,0.56682 -0.47379,0.68803 0.22242,1.33666 0.99436,0.92639 1.06346,3.0132 0.10979,3.31588 -0.82261,0.26109 -1.69997,-0.0613 -1.95162,-0.71706 -0.10593,-0.27603 -0.4464,-0.50189 -0.75661,-0.50189 -0.42077,0 -0.50311,0.20159 -0.3242,0.79375 0.34885,1.15465 1.00543,1.72501 0.71068,0.61737 l -0.23468,-0.88195 0.7242,0.83283 c 0.97774,1.12441 0.911,2.43266 -0.20812,4.07959 -0.92913,1.36734 -0.93012,1.37611 -0.28982,2.56508 0.8717,1.61866 1.55775,1.37842 2.71613,-0.95111 z m 1.68102,-7.05019 c -0.46023,-0.29276 -0.46409,-0.44142 -0.0296,-1.14113 0.28916,-0.46565 0.46701,-1.52218 0.42225,-2.50834 -0.065,-1.432 0.033,-1.73268 0.61431,-1.8847 0.38042,-0.0995 0.77086,-0.48369 0.86764,-0.85381 0.24353,-0.93125 1.25478,-0.84607 1.43431,0.12081 0.45288,2.43916 0.14375,3.78488 -1.19632,5.20776 -1.47705,1.56833 -1.38507,1.52221 -2.11262,1.05941 z m 2.76513,6.55054 c 0.54473,-0.28169 1.17984,-0.7404 1.41136,-1.01936 0.34734,-0.41852 0.22719,-0.54595 -0.68715,-0.72882 -1.96763,-0.39352 -2.63355,-0.24544 -3.36594,0.74852 -0.39316,0.53358 -0.65509,1.14705 -0.58206,1.36328 0.16921,0.50099 1.93751,0.30155 3.22379,-0.36362 z m 131.833624,-3.64549 c -0.0527,-2.27983 -0.0305,-3.15295 0.0494,-1.94028 0.0799,1.21268 0.25704,2.21701 0.3937,2.23186 0.13665,0.0148 0.48659,0.0769 0.77763,0.138 0.29104,0.0611 1.09272,0.21937 1.78152,0.35181 l 1.25235,0.2408 1.47242,-3.642 c 2.55327,-6.31547 4.50037,-13.31861 5.42634,-19.51699 0.73319,-4.90786 0.63228,-19.82699 -0.16583,-24.51806 -2.56263,-15.06253 -9.39074,-29.84088 -18.74447,-40.56945 -2.86301,-3.283817 -8.87835,-9.025873 -11.5434,-11.018961 -0.70955,-0.53064 -1.50226,-1.172252 -1.76159,-1.425802 -1.08507,-1.060889 -6.84901,-4.647756 -10.85611,-6.755697 -12.5759,-6.61557 -24.35973,-9.500529 -38.65151,-9.462803 -11.297054,0.02982 -20.664654,1.849286 -30.597284,5.942895 -5.64847,2.327952 -11.38791,5.405158 -15.26384,8.183726 -0.97014,0.695472 -2.31951,1.641233 -2.99861,2.101692 -3.71918,2.521772 -11.92509,10.581643 -15.64977,15.37125 -5.67457,7.29699 -11.13091,17.59939 -13.39189,25.28593 -2.59318,8.81588 -3.11691,11.6853 -3.77153,20.66349 -0.63801,8.75025 0.17892,14.73478 3.17478,23.25734 1.11872,3.18251 4.19555,10.42868 4.56873,10.75972 0.10937,0.097 0.6751,1.12889 1.25718,2.29306 l 1.05834,2.11667 0.10677,-1.65729 c 0.0647,-1.00418 -0.10909,-2.07471 -0.44098,-2.71651 -0.68571,-1.32603 -0.72465,-5.28504 -0.0673,-6.83823 0.60353,-1.42592 1.4573,-2.16672 3.10728,-2.69614 0.71208,-0.22848 1.48558,-0.64543 1.71889,-0.92655 0.53292,-0.64213 3.52613,-0.67204 9.39525,-0.0939 3.81514,0.37582 4.64276,0.35267 7.40833,-0.20723 1.71236,-0.34668 5.05808,-0.71594 7.43492,-0.82057 3.32328,-0.1463 4.32152,-0.30148 4.32152,-0.67179 0,-0.4505 1.04507,-0.66992 2.5695,-0.53949 0.34608,0.0296 0.73137,-0.22305 0.85622,-0.56146 0.33434,-0.90631 0.82011,-1.13306 2.44023,-1.13907 0.80092,-0.003 1.99155,-0.2255 2.64583,-0.4945 0.83864,-0.34479 1.44982,-0.38965 2.07156,-0.15207 0.85713,0.32753 0.86268,0.35122 0.19715,0.84187 -0.63812,0.47045 -0.59605,0.50485 0.61737,0.50485 1.55949,0 1.75314,0.74657 0.4202,1.61994 -1.20492,0.7895 -1.1147,1.31831 0.52917,3.1017 1.57717,1.71103 1.75673,2.69385 0.68751,3.76307 -0.7595,0.7595 -1.35008,0.71575 -3.22763,-0.23913 -0.52395,-0.26646 -1.42253,-0.48447 -1.99685,-0.48447 -0.89815,0 -1.2584,0.32716 -2.57516,2.33863 -0.84201,1.28624 -2.00718,3.18907 -2.58926,4.2285 -0.58209,1.03942 -1.39517,2.26671 -1.80685,2.7273 l -0.74852,0.83744 1.05876,0.62543 c 0.87848,0.51893 1.51649,0.58517 3.74712,0.38904 3.12169,-0.27447 6.68205,-1.06418 7.21912,-1.60125 0.26197,-0.26197 0.16827,-0.37658 -0.31505,-0.38537 -0.59591,-0.0108 -0.56996,-0.0799 0.19403,-0.51666 1.22758,-0.70176 1.52194,-0.65792 2.65914,0.396 0.54905,0.50885 1.4527,0.94541 2.00812,0.97014 0.86295,0.0384 1.15353,-0.2116 1.99776,-1.71892 0.98833,-1.76463 2.57305,-4.25155 3.16401,-4.96532 0.17267,-0.20857 0.91296,-1.21298 1.64507,-2.23202 0.83041,-1.15588 2.26304,-2.46678 3.80869,-3.48505 2.41773,-1.5928 2.5422,-1.63149 5.15088,-1.6007 1.47031,0.0173 7.435784,0.0607 13.256624,0.0964 5.82083,0.0357 11.08881,0.22144 11.70663,0.41283 1.47915,0.45822 2.43767,2.1331 3.27244,5.71813 0.59524,2.55632 0.61196,3.00246 0.16035,4.27844 -0.2773,0.7835 -0.60504,2.33734 -0.72831,3.453 -0.22216,2.01071 -0.21602,2.02848 0.70094,2.02848 0.50878,0 1.5729,-0.25922 2.36472,-0.57604 1.16044,-0.46432 1.61593,-0.49572 2.34857,-0.16191 0.6044,0.27538 1.86777,0.33775 3.77095,0.18616 2.5947,-0.20667 2.94175,-0.15814 3.71537,0.51955 0.89245,0.78178 1.43251,0.74809 3.3081,-0.20633 0.88321,-0.44943 0.97216,-0.65506 0.85007,-1.965 -0.075,-0.80468 -0.33483,-1.52921 -0.57741,-1.61007 -0.72806,-0.24269 -2.82679,-2.67028 -2.83704,-3.28161 -0.005,-0.31287 -0.44611,-1.1414 -0.97969,-1.84119 -0.53358,-0.69978 -1.41922,-1.99173 -1.96809,-2.87099 -1.23733,-1.98211 -2.12755,-2.23989 -4.34613,-1.25851 -2.09656,0.92741 -3.1054,0.72321 -3.61241,-0.73118 -0.36093,-1.03538 -0.28699,-1.2092 1.23416,-2.90109 l 1.61811,-1.79972 -1.09303,-0.97662 c -1.4305,-1.27815 -1.37934,-1.69212 0.20912,-1.69212 1.21292,0 1.25522,-0.0345 0.61736,-0.50397 -0.64799,-0.47689 -0.65079,-0.51715 -0.052,-0.74921 0.34802,-0.13489 1.22115,-0.13001 1.94028,0.0108 0.71912,0.14084 2.15771,0.36913 3.19685,0.50732 1.36215,0.18114 2.05799,0.47481 2.4937,1.05245 0.3324,0.44066 0.83156,0.76883 1.10926,0.72926 1.4473,-0.20622 2.41609,0.0298 2.21999,0.54082 -0.17156,0.44708 0.30901,0.52938 3.09787,0.53059 1.81552,7e-4 5.28532,0.33471 7.71067,0.74207 4.01319,0.67405 4.7648,0.70205 8.35857,0.31142 6.4772,-0.70407 8.13205,-0.62786 10.12661,0.46639 0.95053,0.52148 1.91504,0.94814 2.14337,0.94814 0.57651,0 1.81621,1.41671 2.12314,2.4263 0.41634,1.36948 0.22114,5.5064 -0.32035,6.78921 -0.4725,1.11936 -0.49492,0.97803 -0.37061,-2.33634 0.10734,-2.86201 0.0523,-3.39463 -0.29182,-2.82223 -0.28054,0.4667 -0.3895,2.01928 -0.32185,4.58612 0.0563,2.1343 -0.0886,4.95221 -0.32198,6.262 -0.31934,1.79248 -0.3249,2.59952 -0.0225,3.2632 0.79482,1.74444 1.05539,0.85872 0.96007,-3.2634 z M 76.628376,162.90765 c 0,-0.31299 0.58911,-0.66179 1.49931,-0.88772 0.82461,-0.20469 2.49799,-0.6554 3.7186,-1.00159 l 2.2193,-0.62945 -2.30849,-0.81496 c -2.47444,-0.87355 -4.63752,-0.80247 -5.00862,0.16459 -0.10757,0.28033 -0.47912,0.5097 -0.82566,0.5097 -0.34653,0 -0.72534,0.24829 -0.84179,0.55175 -0.11645,0.30346 -0.49062,0.50586 -0.83149,0.44978 -0.34088,-0.0561 -0.79341,0.007 -1.00564,0.14057 -0.21222,0.13339 -0.96694,0.14824 -1.67715,0.033 l -1.29128,-0.20955 0.90158,-0.83555 c 0.49586,-0.45954 1.19766,-0.83554 1.55955,-0.83554 0.36189,0 0.71473,-0.17023 0.78408,-0.37828 0.0693,-0.20806 0.99539,-0.42796 2.05787,-0.48866 3.13331,-0.17903 3.07309,-0.16661 2.46094,-0.5077 -2.18525,-1.21765 -8.12546,-0.30789 -9.91042,1.51782 -1.01128,1.03436 -1.88591,1.06971 -1.03277,0.0417 0.24544,-0.29573 0.35525,-0.53769 0.24403,-0.53769 -0.8895,0 -4.29186,0.95212 -5.8371,1.63345 -1.04279,0.4598 -2.15404,0.82383 -2.46944,0.80897 -0.31541,-0.0148 0.37838,-0.46411 1.54174,-0.99832 2.03934,-0.93646 2.07958,-0.98024 1.12187,-1.22061 -0.54634,-0.13712 -2.84756,-0.1517 -5.11382,-0.0324 -2.95386,0.15552 -3.97066,0.11076 -3.59131,-0.15807 0.29104,-0.20626 1.40229,-0.39586 2.46944,-0.42134 1.06716,-0.0255 1.66247,-0.11892 1.32292,-0.20766 -0.33955,-0.0887 -0.61736,-0.4048 -0.61736,-0.70237 0,-0.37673 0.18748,-0.464 0.61736,-0.28736 1.34759,0.55375 4.19344,1.22214 5.02708,1.18069 0.71422,-0.0355 0.7454,-0.071 0.16393,-0.18682 -0.39491,-0.0786 -0.92721,-0.47793 -1.18289,-0.88735 -0.45621,-0.7305 -0.43015,-0.74027 1.39699,-0.52387 1.02402,0.12128 1.96673,0.39019 2.0949,0.59757 0.54456,0.88112 2.30511,0.92647 5.40556,0.13922 3.34746,-0.84996 4.53823,-1.44098 2.08748,-1.03609 -0.9969,0.16469 -1.4993,0.11909 -1.4993,-0.13609 0,-0.21109 -0.3175,-0.38379 -0.70556,-0.38379 -0.47037,0 -0.70555,-0.23519 -0.70555,-0.70555 0,-0.58628 0.23518,-0.70556 1.39111,-0.70556 0.91895,0 1.54756,0.211 1.85208,0.62166 0.25353,0.34192 1.21732,0.81817 2.14173,1.05833 2.2382,0.5815 2.56902,0.56493 2.01633,-0.10102 -0.24543,-0.29573 -0.33001,-0.65291 -0.18796,-0.79375 0.14206,-0.14083 0.60124,0.16013 1.02041,0.6688 0.7524,0.91305 1.98948,1.72098 2.63512,1.72098 0.18253,0 0.33187,-0.42418 0.33187,-0.94263 0,-0.51844 0.29766,-1.16117 0.66146,-1.42828 0.3638,-0.26712 0.66146,-0.83512 0.66146,-1.26224 0,-0.4551 0.21905,-0.77657 0.52917,-0.77657 0.816,0 0.49983,1.40837 -0.55239,2.46059 -0.54681,0.54681 -0.83746,1.14292 -0.71406,1.4645 0.11446,0.29829 0.20811,0.67047 0.20811,0.82709 0,0.49274 4.45524,1.5169 5.69712,1.30964 2.48469,-0.41468 5.27479,-1.02834 5.16674,-1.13639 -0.062,-0.062 -1.43277,-0.18986 -3.04615,-0.28413 -2.94657,-0.17216 -3.89349,-0.63218 -3.92593,-1.90727 -0.006,-0.24254 -0.16997,-0.44097 -0.364,-0.44097 -0.19403,0 -0.35278,-0.23813 -0.35278,-0.52917 0,-0.58449 0.89583,-0.72473 1.2252,-0.19179 0.11468,0.18555 0.42549,0.2541 0.69069,0.15233 0.26521,-0.10176 0.58699,-0.0155 0.71508,0.1918 0.12809,0.20725 0.54103,0.37683 0.91763,0.37683 0.37661,0 0.68474,0.15875 0.68474,0.35277 0,0.19403 0.19993,0.35278 0.4443,0.35278 0.24437,0 0.64259,0.3175 0.88494,0.70556 0.36175,0.57926 0.82268,0.70555 2.57512,0.70555 2.20752,0 2.52362,-0.42512 0.80264,-1.07943 -0.4779,-0.18169 -0.78176,-0.47136 -0.67525,-0.64369 0.1065,-0.17233 -0.13804,-0.40007 -0.54344,-0.50608 -0.4054,-0.10601 -0.63914,-0.35122 -0.51944,-0.5449 0.1197,-0.19368 0.0563,-0.45186 -0.1409,-0.57373 -0.77642,-0.47985 -0.28916,-0.8855 1.06365,-0.8855 0.91096,0 1.49211,0.18221 1.6167,0.50689 0.10698,0.27879 0.40733,0.42523 0.66743,0.32542 0.26011,-0.0998 0.64943,0.14833 0.86516,0.55144 0.21574,0.4031 0.62479,0.73292 0.909,0.73292 0.28422,0 0.51676,0.14576 0.51676,0.32392 0,0.17816 0.0964,0.57504 0.21413,0.88194 0.16327,0.42548 -0.0253,0.56464 -0.79375,0.58588 -0.55434,0.0153 -0.82117,0.10401 -0.59296,0.1971 0.2282,0.0931 1.2592,0.0158 2.29111,-0.17176 1.0319,-0.18755 2.01307,-0.25641 2.180384,-0.153 0.49615,0.30664 -0.568474,0.79414 -1.746974,0.79996 -1.3347,0.007 -3.31583,0.66276 -3.31583,1.09825 0,0.17504 0.37862,0.31826 0.84137,0.31826 0.88342,0 2.17645,1.51478 1.80545,2.11508 -0.23744,0.38418 -2.2573,0.07 -2.92456,-0.45495 -0.28601,-0.225 -0.38468,-0.79431 -0.26651,-1.53786 0.24442,-1.53792 -0.28544,-1.52173 -1.77166,0.0541 -0.64047,0.6791 -1.30215,1.23472 -1.47041,1.23472 -0.16825,0 -0.4948,0.18889 -0.72567,0.41977 -0.45658,0.45657 -0.96652,0.59724 -2.98454,0.82328 -0.96467,0.10806 -1.32292,0.0155 -1.32292,-0.34164 0,-0.26941 0.15366,-0.54275 0.34147,-0.60743 0.19199,-0.0661 0.21412,-0.32254 0.0506,-0.58577 -0.48965,-0.78802 -3.16564,0.118 -3.58186,1.21273 -0.18679,0.49131 -0.50465,0.78157 -0.71412,0.65211 -0.20762,-0.12832 -0.29227,-0.45537 -0.18812,-0.72679 0.23057,-0.60085 0.0496,-0.60654 -2.26868,-0.0714 -1.00565,0.23213 -1.90787,0.62901 -2.00493,0.88195 -0.24089,0.62775 -1.15932,0.58364 -1.15932,-0.0557 z m 41.633884,-0.63096 c 0.003,-0.43656 0.40022,-1.1676 0.88194,-1.62453 1.60494,-1.52234 0.94488,-2.58536 -2.12056,-3.41514 -1.97465,-0.53451 -2.57919,-0.5635 -4.15514,-0.19923 -1.01435,0.23447 -2.55866,0.55909 -3.43178,0.72138 -1.56821,0.29149 -1.57249,0.29611 -0.35278,0.37964 0.6791,0.0465 2.20732,0.1218 3.39605,0.16732 2.40794,0.0922 3.33298,0.42674 2.55064,0.92245 -0.34587,0.21916 -0.248,0.30478 0.35286,0.30868 0.58496,0.004 0.77257,0.15895 0.63277,0.52327 -0.1093,0.28483 -0.0469,0.6117 0.13864,0.72638 0.18556,0.11468 0.33737,0.34887 0.33737,0.52043 0,0.4724 -2.57597,0.2088 -2.73899,-0.28028 -0.0781,-0.23433 -0.4463,-0.42606 -0.81818,-0.42606 -0.37189,0 -0.67616,-0.15875 -0.67616,-0.35278 0,-0.19403 -0.15875,-0.35278 -0.35278,-0.35278 -0.19403,0 -0.67028,-0.3175 -1.05833,-0.70555 -0.57825,-0.57825 -1.13523,-0.69689 -3.08681,-0.65752 -1.30968,0.0264 -2.02406,0.11684 -1.5875,0.20093 0.43657,0.0841 0.79375,0.30059 0.79375,0.48112 0,0.18054 0.19844,0.33099 0.44098,0.33434 0.64589,0.009 2.12078,1.6758 1.85842,2.10032 -0.1234,0.19966 0.0231,0.36303 0.32562,0.36303 0.30249,0 0.54998,0.15875 0.54998,0.35278 0,0.57018 -3.06939,0.43126 -3.29206,-0.14901 -0.11785,-0.3071 -0.47466,-0.42801 -0.91969,-0.31163 -0.56265,0.14713 -0.72714,0.0237 -0.72714,-0.54548 0,-0.48824 -0.16735,-0.67141 -0.49762,-0.54467 -0.3076,0.11804 -0.68385,-0.1893 -0.98528,-0.80482 -0.41796,-0.8535 -0.6745,-0.98469 -1.79542,-0.91814 -1.997144,0.11858 -1.55672,-0.50902 0.5443,-0.77561 2.39406,-0.30378 3.0868,-0.50875 3.0868,-0.91331 0,-0.18095 -0.27275,-0.329 -0.60613,-0.329 -0.59569,0 -2.21609,-1.58782 -2.21609,-2.17154 0,-0.40334 1.51053,-0.37677 2.62287,0.0461 0.73747,0.28039 0.90491,0.57643 0.90491,1.59991 0,1.19199 0.0404,1.23445 0.79375,0.83469 0.43656,-0.23164 1.00119,-0.71348 1.25472,-1.07074 0.25354,-0.35726 0.68221,-0.64957 0.95261,-0.64957 0.2704,0 0.61859,-0.22434 0.77375,-0.49853 0.34356,-0.60711 4.02621,-1.3434 4.48624,-0.89695 0.19405,0.18832 0.0971,0.40094 -0.24231,0.53117 -0.71883,0.27584 -0.38397,1.21709 0.43301,1.21709 1.35612,0 2.84489,-0.79006 3.05326,-1.62032 0.11655,-0.46434 0.36755,-0.74806 0.55778,-0.63049 0.19023,0.11757 0.27311,0.49202 0.18418,0.83211 -0.139,0.53151 -0.007,0.57957 0.9394,0.34224 2.3651,-0.59308 3.53228,-1.04565 3.79564,-1.47179 0.19733,-0.31928 0.38241,-0.33676 0.65712,-0.062 0.56718,0.56718 -0.29006,1.13537 -2.32831,1.54322 -0.9509,0.19027 -2.44327,0.57121 -3.3164,0.84653 -1.32163,0.41675 -1.46933,0.54494 -0.88194,0.76543 0.38805,0.14566 1.24088,0.47953 1.89516,0.74192 1.76625,0.70834 3.69663,0.60934 4.45484,-0.22847 0.35118,-0.38806 0.8326,-0.70556 1.06981,-0.70556 0.23722,0 0.6009,-0.20435 0.80819,-0.45412 0.44184,-0.53239 4.64839,-0.78985 4.64839,-0.28451 0,0.18607 -0.3175,0.43908 -0.70556,0.56225 -0.38805,0.12316 -0.70555,0.37198 -0.70555,0.55294 0,0.18095 -0.38365,0.329 -0.85255,0.329 -0.4689,0 -0.91172,0.17751 -0.98404,0.39447 -0.0723,0.21695 -0.91898,0.44137 -1.88148,0.49871 -0.96249,0.0573 -2.06749,0.12278 -2.45555,0.14543 -1.74821,0.10203 1.73249,1.1688 3.70417,1.13525 0.48507,-0.008 1.57659,-0.26262 2.42561,-0.56526 0.84901,-0.30265 1.79282,-0.55027 2.09736,-0.55027 0.30453,0 0.99729,-0.42498 1.53946,-0.94442 0.54217,-0.51943 1.10649,-0.81519 1.25403,-0.65726 0.14755,0.15794 0.0698,0.35804 -0.17271,0.44466 -0.24253,0.0866 -0.44097,0.31237 -0.44097,0.50169 0,0.18931 0.14647,0.25367 0.32549,0.14303 0.17902,-0.11064 1.15002,-0.35753 2.15777,-0.54865 1.00775,-0.19112 2.76958,-0.76812 3.91517,-1.28223 1.1456,-0.51411 2.18388,-0.83377 2.3073,-0.71034 0.12342,0.12342 -0.60173,0.56773 -1.61144,0.98735 -1.00972,0.41961 -1.70932,0.88812 -1.55466,1.04112 0.36466,0.36075 3.5239,0.41873 6.54301,0.12008 1.6586,-0.16407 2.38125,-0.11603 2.38125,0.15832 0,0.24384 -0.76476,0.39388 -2.00771,0.39388 -1.81963,0 -1.9436,0.0469 -1.32347,0.50032 1.10856,0.8106 0.32462,1.0345 -1.47504,0.4213 -2.31941,-0.7903 -3.08512,-0.75215 -2.85127,0.14207 0.16913,0.64679 0.03,0.7054 -1.54218,0.64975 -1.1722,-0.0415 -1.91724,-0.27017 -2.31611,-0.71091 -0.75608,-0.83546 -1.81923,-0.81867 -5.45728,0.0862 -3.2532,0.80911 -4.15538,1.25539 -1.81236,0.89651 0.82462,-0.12631 1.49931,-0.10667 1.49931,0.0436 0,0.15031 0.33918,0.43 0.75373,0.62153 1.25088,0.57793 0.9283,1.04766 -0.79621,1.15945 -1.36257,0.0883 -1.65913,-0.006 -1.80761,-0.57358 -0.11678,-0.44655 -0.58561,-0.74205 -1.36863,-0.86262 -0.65505,-0.10086 -1.56627,-0.30256 -2.02492,-0.44821 -0.73678,-0.23398 -0.80592,-0.17662 -0.59359,0.49238 0.26568,0.83709 -0.32015,1.06245 -0.63423,0.24398 -0.16338,-0.42577 -2.65349,-1.95622 -3.18285,-1.95622 -0.0866,0 -0.0832,0.28377 0.007,0.63059 0.0907,0.34683 -0.20038,1.09498 -0.64683,1.66256 -0.44646,0.56757 -0.76368,1.31568 -0.70493,1.66246 0.0647,0.3821 -0.1104,0.6305 -0.44452,0.6305 -0.33839,0 -0.54899,-0.30659 -0.54525,-0.79375 z m -13.31675,-3.67098 c -0.23884,-0.0966 -0.71509,-0.10252 -1.05833,-0.0131 -0.34324,0.0894 -0.14782,0.16851 0.43426,0.1757 0.58208,0.007 0.86292,-0.066 0.62407,-0.16263 z m -69.415744,-6.87684 c -2.74099,-1.0098 -3.70417,-2.90886 -3.70417,-7.3033 0,-2.88178 0.12113,-3.43635 1.44567,-6.61889 1.71041,-4.10971 2.92168,-6.37397 5.45135,-10.19041 2.11283,-3.18756 7.70916,-9.3147 8.12919,-8.90024 0.15159,0.14959 -0.36952,0.94334 -1.15802,1.76389 -2.59239,2.69776 -5.46197,6.98074 -7.70755,11.50388 -2.6461,5.32988 -3.33842,7.52593 -3.33842,10.58957 0,4.83582 1.98967,7.07613 6.54405,7.36842 2.94111,0.18874 4.67869,-0.0589 5.65369,-0.80571 0.61522,-0.47125 0.56788,-0.48283 -0.50655,-0.12391 -0.70591,0.23581 -2.25312,0.31516 -3.82593,0.19621 -3.03761,-0.22973 -4.96766,-1.24711 -5.9909,-3.15796 -0.83453,-1.55844 -0.81794,-6.4773 0.03,-8.90915 1.62511,-4.66046 5.90216,-12.26355 8.83111,-15.69861 2.05095,-2.40534 6.55619,-6.69618 8.04231,-7.65957 0.8288,-0.53729 1.58628,-1.06715 1.6833,-1.17749 0.40823,-0.4643 3.87131,-2.22537 5.99722,-3.04975 2.47854,-0.96112 5.43662,-1.16193 7.17926,-0.48737 4.05085,1.56805 3.60656,8.65782 -0.79239,12.64471 -1.46853,1.33096 -4.45013,2.5517 -6.23244,2.5517 -0.99829,0 -1.29556,-0.17186 -1.57679,-0.91155 -0.41996,-1.10457 -0.2921,-1.34665 0.99219,-1.87862 1.05057,-0.43516 2.89961,-2.94236 2.89961,-3.93172 0,-0.8003 -1.52146,-2.37605 -2.54134,-2.63202 -1.1859,-0.29765 -2.26725,0.203 -4.68511,2.16912 -5.19978,4.22828 -10.28068,10.59465 -12.78054,16.01403 -3.63825,7.88724 -3.25647,12.05538 1.14948,12.54966 1.50465,0.1688 2.02767,0.0426 3.75961,-0.9075 1.1065,-0.60697 2.41463,-1.5823 2.90696,-2.16739 0.49233,-0.5851 1.05351,-0.96594 1.24707,-0.84631 0.19357,0.11963 1.13882,-0.51853 2.10057,-1.41813 2.0769,-1.9427 3.19886,-1.95649 3.19886,-0.0393 0,0.89514 -0.3553,1.4758 -1.67569,2.73856 -2.3226,2.2212 -4.22063,3.62774 -6.17997,4.57966 -0.91813,0.44606 -1.66934,0.9986 -1.66934,1.22787 0,0.22926 -1.23031,1.02514 -2.73403,1.76862 -2.47372,1.22309 -3.03631,1.3607 -5.90902,1.44537 -1.74625,0.0515 -3.65125,-0.0819 -4.23334,-0.29633 z m 31.91517,-36.91684 c -0.0165,-1.91851 -0.72045,-2.64324 -2.6071,-2.68392 -0.87654,-0.0189 -1.78359,0.17149 -2.03819,0.42782 -0.37703,0.37957 -0.35611,0.4228 0.11741,0.24264 0.3169,-0.12058 1.14469,0.0183 1.83953,0.30863 2.16986,0.90663 2.1976,3.11955 0.0651,5.19171 -0.6812,0.66191 -1.24023,1.35089 -1.24229,1.53106 -0.002,0.18017 0.86936,-0.58111 1.93652,-1.69174 1.64967,-1.71689 1.93859,-2.21507 1.92906,-3.3262 z m 70.917274,33.81769 c -1.65808,-0.50437 -3.08745,-1.40748 -4.06345,-2.5674 l -0.97478,-1.15846 0.22969,-4.93963 c 0.12634,-2.71679 0.31383,-5.57462 0.41666,-6.35073 0.17009,-1.28368 0.11175,-1.21639 -0.64602,0.74512 -1.5842,4.10076 -4.38431,8.1441 -6.39776,9.23834 -1.68313,0.91471 -7.91287,0.80682 -10.27372,-0.17793 -1.34633,-0.56158 -1.94035,-0.65246 -2.43937,-0.37319 -1.12173,0.62775 3.26679,2.0424 6.51215,2.0992 1.45521,0.0255 2.80458,-0.0187 2.99861,-0.0982 0.19403,-0.0795 0.43215,-0.001 0.52916,0.17371 0.097,0.175 -0.45861,0.65092 -1.23472,1.0576 -2.16573,1.13482 -6.55668,1.22287 -9.75165,0.19555 l -2.47537,-0.79594 -1.82399,0.74317 c -4.45422,1.81486 -7.45229,1.89601 -9.597494,0.25978 -0.74089,-0.56511 -1.33562,-1.37463 -1.45746,-1.98386 -0.23706,-1.18532 -0.3885,-1.22032 -2.13073,-0.49237 -1.05603,0.44124 -2.4519,0.50284 -7.83798,0.34584 -10.04581,-0.29281 -11.4332,-0.76205 -11.4332,-3.8669 0,-1.22333 0.51788,-2.60363 2.37753,-6.33673 2.52719,-5.07317 2.80991,-6.45154 1.28849,-6.28187 -1.01723,0.11345 -1.43476,0.4659 -0.8144,0.68745 0.93022,0.33223 0.36817,2.38036 -1.85209,6.74913 -1.68538,3.31631 -2.29305,4.88508 -2.29305,5.91982 0,2.85353 2.09813,3.78399 8.64305,3.83295 10.8627,0.0812 11.3727,0.18328 8.11613,1.62382 -1.34121,0.59328 -2.19385,0.64409 -8.32634,0.49623 -7.5746,-0.18263 -10.38339,-0.62036 -10.96601,-1.709 -0.81068,-1.51476 -0.094,-4.44409 2.15296,-8.79953 2.08681,-4.04506 2.48516,-5.29285 1.82081,-5.70344 -0.59785,-0.3695 -5.76799,6.41547 -7.56384,9.92633 -0.31653,0.61881 -0.91795,1.36497 -1.33648,1.65812 -0.66992,0.46923 -0.90747,0.47179 -1.98537,0.0214 -0.67343,-0.28137 -1.95909,-0.51402 -2.85702,-0.51699 -2.06077,-0.007 -2.51416,-0.28743 -2.12874,-1.31751 0.16335,-0.43657 0.42477,-0.79375 0.58092,-0.79375 0.44023,0 1.23186,-1.70699 4.4991,-9.70139 1.66525,-4.07459 3.2487,-7.88459 3.51878,-8.46667 0.27009,-0.58208 0.93514,-2.16958 1.4779,-3.52778 0.54276,-1.35819 1.14917,-2.63876 1.34757,-2.84571 0.69875,-0.72883 2.30102,-1.64114 2.30102,-1.31017 0,0.18425 -1.60563,4.21095 -3.56806,8.94822 -1.96243,4.73727 -3.93918,9.53666 -4.39277,10.66532 -0.45358,1.12865 -1.23152,2.77998 -1.72875,3.66962 -0.49723,0.88963 -0.83138,1.69019 -0.74256,1.77901 0.3258,0.32579 2.44743,-3.1119 3.36271,-5.4486 0.51809,-1.3227 1.2256,-3.03991 1.57223,-3.81602 0.34664,-0.77611 0.76086,-1.72861 0.92049,-2.11667 1.15078,-2.79749 4.79496,-11.61391 5.39523,-13.05278 1.07737,-2.58247 2.93527,-3.98955 4.68718,-3.54985 0.46857,0.11761 0.84179,0.008 0.95196,-0.2788 0.24358,-0.63477 3.43791,-2.72838 3.811,-2.49779 0.16269,0.10054 -0.41434,0.86322 -1.28227,1.69485 -1.34447,1.28822 -1.57786,1.71681 -1.57673,2.89543 7e-4,0.76086 0.31788,1.90261 0.7048,2.53721 0.73302,1.20225 3.61579,3.25687 4.56642,3.25458 0.30156,-7.1e-4 -0.007,-0.33441 -0.68643,-0.74153 -4.02707,-2.41419 -4.8938,-5.63161 -2.19671,-8.15452 2.75059,-2.57296 5.92393,-2.81772 10.15389,-0.7832 l 2.75707,1.3261 0.97936,-1.17311 c 1.35291,-1.62057 2.646064,-4.46881 3.161154,-6.96264 0.49541,-2.39852 0.3193,-3.146917 -0.84463,-3.589447 -0.960364,-0.36512 -3.074024,-2.66146 -3.074024,-3.33969 0,-0.75578 0.75201,-2.686197 1.04643,-2.686197 0.14951,0 0.98842,0.716567 1.864224,1.592371 1.05441,1.054416 1.78207,1.519576 2.15387,1.376906 0.30883,-0.11851 1.05782,-1.03352 1.66442,-2.033347 0.6066,-0.999831 1.76169,-2.517897 2.56685,-3.373481 l 1.46394,-1.555607 -1.23473,0.835615 c -0.67909,0.459588 -1.47284,1.146759 -1.76389,1.527047 -1.00139,1.308465 -2.42324,3.432093 -2.5803,3.853853 -0.11109,0.29833 -0.34018,0.24835 -0.7796,-0.17011 -0.59223,-0.563957 -0.56445,-0.673058 0.57506,-2.25867 1.5133,-2.105735 4.38777,-4.144798 5.46263,-3.875025 0.42684,0.107129 1.38322,-0.05891 2.12531,-0.368969 2.89668,-1.210312 6.19341,0.239055 6.70126,2.946131 0.2887,1.538925 -0.67225,3.730403 -2.33213,5.318483 -1.24931,1.19527 -4.18378,2.88593 -5.01536,2.88955 -0.24898,0.001 -1.0347,0.16362 -1.74603,0.36119 -1.16331,0.323107 -1.31834,0.509097 -1.54211,1.850117 -0.35855,2.1487 -1.81254,6.02749 -3.38621,9.03335 -0.74969,1.43197 -1.36307,2.7909 -1.36307,3.01984 0,0.22894 0.49432,0.92186 1.09849,1.53982 1.13189,1.15773 4.44524,2.4272 4.96872,1.90372 0.15656,-0.15656 0.42529,-1.38754 0.59719,-2.73552 0.66483,-5.21338 3.12742,-9.07037 7.07801,-11.08581 1.71583,-0.87535 2.3377,-0.72512 0.84028,0.203 -1.41655,0.87799 -3.60677,3.2626 -4.33772,4.72271 -0.54381,1.08629 -1.42683,4.38835 -1.88811,7.06061 -0.0837,0.48507 -0.26971,1.16156 -0.41327,1.50331 -0.19629,0.46725 -0.12806,0.57033 0.27511,0.41562 0.69278,-0.26584 1.20285,-1.6466 1.42704,-3.86304 0.39154,-3.8708 2.50971,-7.61451 5.43557,-9.60695 2.78801,-1.89858 4.89083,-2.3079 6.79577,-1.32282 0.94551,0.48895 1.12134,0.47487 2.18734,-0.17507 0.63756,-0.38871 1.59273,-0.70734 2.12261,-0.70806 1.65019,-0.002 1.5484,1.11745 -0.59326,6.52579 -1.07551,2.71599 -1.95596,5.39041 -1.95656,5.94316 -7.1e-4,0.6627 0.35935,1.3417 1.05723,1.99362 1.24466,1.16268 1.34315,1.93941 0.31563,2.48932 -1.24955,0.66874 -2.95367,0.0931 -4.372,-1.47682 l -1.29824,-1.43698 -0.93866,0.87752 c -0.51627,0.48264 -1.41492,1.11682 -1.997,1.40931 -1.55478,0.78123 -5.63461,1.73573 -6.77367,1.58473 l -0.98745,-0.13089 1.23473,-0.41828 c 1.15743,-0.39209 1.16847,-0.40954 0.17639,-0.27868 -0.58209,0.0768 -2.24896,0.46863 -3.70417,0.8708 -4.12548,1.14013 -7.12497,0.87637 -9.774204,-0.85947 l -0.96117,-0.62978 0.78514,-0.35033 c 0.61541,-0.27461 1.19897,-0.1477 2.699644,0.5871 2.39236,1.17143 2.94034,1.2028 1.07698,0.0617 -2.941294,-1.80127 -2.799774,-1.77925 -5.023024,-0.78152 -1.1237,0.50429 -2.7551,1.02578 -3.62532,1.15886 -0.87022,0.13309 -1.77805,0.39633 -2.01738,0.58497 -0.23935,0.18865 -1.68536,0.36541 -3.21337,0.39281 -2.63031,0.0472 -2.87415,-0.0156 -4.58082,-1.17926 -0.99145,-0.67599 -2.08185,-1.74756 -2.42312,-2.38125 -0.34126,-0.63369 -0.70344,-1.15102 -0.80484,-1.14961 -0.1014,0.001 -1.08357,2.26359 -2.1826,5.02708 -1.09902,2.76349 -2.40671,5.93734 -2.90596,7.053 -0.49925,1.11566 -0.80055,2.02847 -0.66956,2.02847 0.131,0 1.1562,-0.72123 2.27821,-1.60273 2.44813,-1.92336 4.65001,-2.94742 6.91187,-3.2146 2.23794,-0.26436 3.09784,0.59778 3.06115,3.0691 -0.0202,1.35836 -0.50367,2.67823 -2.38125,6.50025 -2.37628,4.83721 -2.53473,5.30769 -2.1368,6.34468 0.20923,0.54526 1.8744,1.60331 2.52329,1.60331 0.16942,0 0.4889,-0.97256 0.70996,-2.16123 0.64315,-3.45837 2.6543,-7.32148 5.04132,-9.68359 1.13914,-1.12726 2.14676,-1.97397 2.23915,-1.88159 0.0924,0.0924 -0.54266,1.18913 -1.41122,2.43719 -0.86856,1.24807 -1.89987,3.30653 -2.29181,4.57435 -0.75354,2.4375 -1.41009,6.36579 -1.06242,6.35669 0.69551,-0.0182 1.05799,-0.8911 1.59734,-3.84662 0.72685,-3.98286 2.07173,-6.97452 4.33847,-9.65081 2.93031,-3.45974 6.41685,-4.54193 10.830114,-3.36156 1.35268,0.36179 1.66678,0.34063 2.20993,-0.1489 1.03213,-0.93024 2.4668,-1.12938 3.45793,-0.47997 0.48365,0.31691 0.87937,0.72832 0.87937,0.91426 0,0.18595 -0.72918,2.20635 -1.6204,4.48979 -0.89122,2.28344 -2.0194,5.17358 -2.50705,6.42253 -1.27963,3.27731 -0.86478,5.64365 0.99249,5.66128 0.49501,0.005 0.52473,-0.23597 0.22801,-1.84669 -0.50551,-2.744 -0.0931,-5.55912 1.2041,-8.21963 1.03982,-2.13261 3.01109,-4.39217 3.83179,-4.39217 0.48936,0 0.43432,0.18213 -0.45325,1.50005 -0.43656,0.64823 -1.09516,2.07761 -1.46356,3.17639 -0.62183,1.85471 -0.63597,2.26411 -0.19738,5.71623 0.32495,2.55768 0.61454,3.71844 0.92767,3.71844 0.72467,0 0.93152,-1.5985 0.46077,-3.56077 -1.24567,-5.19254 0.68879,-10.35054 5.1232,-13.66042 0.75362,-0.56251 3.34412,-1.1229 5.15621,-1.11541 2.00699,0.008 3.06583,0.5651 3.79833,1.99744 1.23471,2.41435 -1.15862,4.32275 -2.71274,2.16308 -0.5046,-0.70121 -3.03259,-0.91398 -3.41958,-0.28781 -0.12182,0.1971 0.14921,0.35278 0.61418,0.35278 1.13075,0 1.67888,0.63346 1.67888,1.94028 0,2.05596 -1.37736,2.52996 -2.99508,1.03071 -1.13037,-1.04759 -1.57373,-0.80589 -2.25025,1.22679 -0.83828,2.51867 -0.11751,5.94126 1.65916,7.8786 1.10438,1.20424 3.44859,2.12388 5.02944,1.97306 1.10169,-0.1051 1.26914,-0.28291 1.99627,-2.11996 1.60294,-4.04967 2.526,-11.52395 1.72154,-13.93991 -0.3096,-0.92982 0.7975,-2.22291 1.9032,-2.22291 1.27096,0 1.53626,1.47678 1.09439,6.09194 -0.45166,4.71751 -1.57489,8.41549 -3.27908,10.79569 -1.05617,1.47513 -1.06533,1.51652 -0.21182,0.95728 1.05947,-0.69419 2.78403,-3.8112 3.84403,-6.94781 0.62435,-1.84749 0.77661,-3.20608 0.84416,-7.53248 0.0757,-4.84605 0.1405,-5.317 0.79159,-5.74932 1.17796,-0.78213 2.5604,-0.19233 3.21744,1.37269 0.4558,1.08565 0.95775,1.54059 2.51001,2.27491 1.06715,0.50482 2.45621,1.3084 3.0868,1.78572 1.09455,0.8285 1.14624,0.97498 1.14026,3.23114 -0.004,1.29982 -0.15999,3.79205 -0.34788,5.5383 -0.28871,2.68326 -0.24962,3.43453 0.25234,4.85069 0.32668,0.92164 0.72135,1.6757 0.87705,1.6757 0.1557,0 0.28309,-1.00306 0.28309,-2.22903 0,-4.96531 2.53802,-9.80716 6.31632,-12.04978 0.56404,-0.33479 0.38553,0.0321 -0.85405,1.7552 -2.07167,2.8798 -3.12277,8.07492 -2.48893,12.30168 0.19968,1.3315 0.37843,1.63304 0.96809,1.63304 0.62833,0 0.69431,-0.15401 0.50296,-1.17402 -0.50565,-2.69533 -0.30111,-7.10429 0.4447,-9.5857 0.66336,-2.20709 3.22703,-6.52639 3.87367,-6.52639 0.13215,0 0.67055,-0.39896 1.19642,-0.88658 1.14917,-1.06557 4.73531,-2.05504 6.75128,-1.86279 1.23893,0.11815 1.56534,-0.004 2.27703,-0.84941 0.91975,-1.09306 2.32076,-1.30112 3.40799,-0.50611 0.64037,0.46825 0.64109,0.62108 0.0267,5.66918 -0.98704,8.11028 -0.79356,9.70764 1.38325,11.41991 0.97623,0.76791 1.09222,1.35979 0.43545,2.2221 -1.04214,1.36829 -3.3344,0.99432 -5.60228,-0.91397 -0.57961,-0.48773 -1.16619,-0.88678 -1.3035,-0.88678 -0.13731,0 -0.54385,0.51594 -0.90343,1.14653 -1.98097,3.47404 -4.78761,5.22969 -7.91969,4.95405 -1.50004,-0.13201 -2.4417,0.007 -3.85074,0.56651 -2.33389,0.92754 -4.46897,0.94268 -6.49593,0.0461 -4.11085,-1.81843 -4.69,-3.05938 -4.17635,-8.94885 0.20582,-2.35987 0.43164,-4.95893 0.50184,-5.77567 0.17014,-1.97956 -0.50707,-2.92474 -2.09553,-2.92474 -1.51549,0 -1.56069,0.42029 -0.10435,0.96999 l 1.11038,0.41912 -0.22767,2.39226 c -0.58532,6.15045 -0.67916,10.30176 -0.25597,11.32344 0.23698,0.57212 1.09402,1.51254 1.90452,2.08982 2.87158,2.04528 5.92976,2.45808 8.82303,1.19095 1.68996,-0.74013 3.31249,-0.87283 5.3478,-0.43739 l 1.05551,0.22582 -1.40829,0.87128 c -1.17741,0.72844 -1.79478,0.85917 -3.76573,0.79736 -1.71178,-0.0537 -2.77459,0.11539 -3.88056,0.6173 -1.5687,0.71191 -4.5913,0.89319 -6.2879,0.37711 z m -27.41828,-3.93397 c 1.11913,-0.42827 1.99191,-0.81842 1.93949,-0.867 -0.0524,-0.0486 -1.28594,0.21792 -2.74115,0.59222 -4.33693,1.11551 -6.84794,0.25974 -8.14988,-2.77755 -0.49632,-1.15788 -0.82319,-1.52007 -1.23071,-1.36369 -0.30519,0.11712 -0.60257,0.21293 -0.66086,0.21293 -0.0583,0 0.0958,0.58701 0.34249,1.30446 0.53078,1.54393 1.70798,2.85041 3.17257,3.52097 1.42119,0.65069 4.73735,0.36906 7.32805,-0.62234 z m -14.653064,-5.53118 c 2.03171,-2.75072 3.50567,-6.49555 3.05925,-7.77256 -0.54008,-1.54492 -1.94162,-1.46865 -3.19567,0.1739 -1.80422,2.36316 -3.49408,6.89649 -3.04371,8.16522 0.7108,2.00231 1.36939,1.88498 3.18013,-0.56656 z m 5.922794,-5.85152 c 2.18943,-4.33093 2.13634,-5.87316 -0.2022,-5.87316 -1.58798,0 -2.204584,0.6063 -0.78281,0.76974 0.85456,0.0982 0.99003,0.28156 1.08782,1.47211 0.0614,0.74796 -0.14611,2.00423 -0.4612,2.79172 -0.74548,1.86314 -3.351394,5.84372 -4.539504,6.93417 -0.5125,0.47039 -0.92966,1.02601 -0.927,1.23472 0.0129,1.0185 4.387344,-4.48567 5.824894,-7.3293 z m 52.37646,6.03309 c 1.554,-4.2458 2.42388,-7.10182 2.63862,-8.66318 0.24157,-1.75636 0.22284,-1.80922 -0.72554,-2.04724 -1.24479,-0.31242 -2.24886,0.77933 -3.29963,3.58775 -1.1401,3.04718 -1.29083,5.71354 -0.40266,7.12267 0.39747,0.63059 0.86822,1.14652 1.04611,1.14652 0.1779,0 0.51229,-0.51593 0.7431,-1.14652 z m 3.94092,-2.38125 c 1.32154,-2.95807 2.71328,-7.5765 2.81715,-9.34862 l 0.10339,-1.76388 -1.3069,-0.10913 c -0.7188,-0.06 -1.58746,0.0542 -1.93035,0.25385 -0.51942,0.30243 -0.4303,0.36478 0.53415,0.37371 0.74658,0.007 1.23749,0.21892 1.3826,0.59707 0.39058,1.01783 -1.24935,7.23157 -2.71717,10.29546 -0.77579,1.61936 -1.40482,3.04811 -1.39784,3.175 0.0288,0.52383 1.85748,-2.00178 2.51497,-3.47346 z m -54.48153,-17.49925 c -0.11723,-0.11723 -0.4215,-0.12976 -0.67616,-0.0278 -0.28142,0.11262 -0.19783,0.19621 0.21314,0.21314 0.37188,0.0153 0.58024,-0.0681 0.46302,-0.18529 z m 11.94687,-3.53152 c -0.13951,-0.36356 0.21631,-1.05105 0.98342,-1.90015 1.50187,-1.6624 3.39303,-5.56675 3.39303,-7.00502 0,-0.74103 0.23507,-1.20949 0.74343,-1.48156 1.18556,-0.63449 1.54181,0.0362 1.05214,1.98088 -0.62662,2.48852 -1.89207,4.74178 -3.81079,6.78547 -2.04634,2.17963 -1.79315,2.43561 0.40498,0.40944 2.01983,-1.86181 4.43246,-6.43887 4.43246,-8.40891 0,-1.24154 -0.12123,-1.46914 -0.88451,-1.66072 -2.51422,-0.63103 -7.93387,6.08534 -7.93465,9.83312 -2.2e-4,1.05413 0.16638,1.40127 0.79347,1.65333 1.08223,0.43501 1.07376,0.43712 0.82702,-0.20588 z m -24.453354,-0.49271 c 0.33417,-0.39028 0.60757,-0.77952 0.60757,-0.865 0,-0.34254 -3.16509,-2.30597 -3.71727,-2.30597 -0.38088,0 -0.51923,-0.18845 -0.38849,-0.52917 0.2973,-0.77474 -0.70211,-0.66018 -1.53868,0.17639 -0.92185,0.92185 -0.89295,1.81764 0.0884,2.73954 1.65243,1.55238 3.97555,1.92053 4.9485,0.78421 z m 2.38898,-0.18142 c 0.57245,-0.29602 1.04082,-0.75854 1.04082,-1.02781 0,-0.58604 -2.73317,-2.66729 -3.50279,-2.66729 -0.29785,0 0.0906,0.42452 0.86325,0.94338 2.22338,1.49308 2.34011,1.8164 0.96384,2.66968 -1.20951,0.74991 -0.76716,0.80706 0.63488,0.082 z M 109.88706,94.56094 c 0.52842,-0.814949 0.96077,-1.841239 0.96077,-2.280643 0,-1.002781 1.34791,-1.843474 1.80335,-1.124748 0.16638,0.262567 0.30494,0.604341 0.30791,0.759497 0.0118,0.615006 -1.16832,2.497894 -2.05514,3.279037 -1.12247,0.98872 -0.51901,1.13784 0.70579,0.17442 2.20141,-1.731632 2.69922,-4.970282 0.76397,-4.970282 -1.79059,0 -4.65756,3.178729 -4.69313,5.203472 -0.0172,0.97732 1.30114,0.3555 2.20648,-1.040753 z M 61.094416,145.5253 c -0.842,-0.28462 -2.01725,-0.44339 -2.61167,-0.35282 -0.59442,0.0906 -1.2792,0.0933 -1.52173,0.006 -0.62882,-0.22614 -0.54513,-1.33825 0.14362,-1.90868 1.05055,-0.87007 7.88207,-0.25049 7.88207,0.71486 0,0.52323 -1.08194,1.72347 -1.69907,1.88485 -0.36428,0.0953 -1.35123,-0.0597 -2.19322,-0.3443 z m -5.01535,-18.46933 c -0.34939,-0.20188 -0.6158,-0.77017 -0.61377,-1.30931 0.003,-0.77408 0.26482,-1.06231 1.3975,-1.53796 1.32735,-0.5574 1.40377,-0.55427 1.60049,0.0655 0.26088,0.82198 0.99949,0.97718 2.96597,0.62326 0.8568,-0.1542 1.62586,-0.21233 1.70902,-0.12917 0.31305,0.31305 -2.701,1.92616 -4.01459,2.1486 -0.75291,0.12749 -1.60705,0.29119 -1.89809,0.36378 -0.29104,0.0726 -0.80698,-0.0285 -1.14653,-0.22472 z m 64.381954,-7.95846 c -1.28176,-0.63186 -1.49055,-1.37867 -0.47551,-1.70083 0.41628,-0.13212 1.17154,0.1267 1.98951,0.68179 0.72517,0.49211 1.46446,0.89475 1.64286,0.89475 0.1784,0 0.22625,0.15875 0.10634,0.35278 -0.32545,0.52658 -1.96429,0.41183 -3.2632,-0.22849 z m -73.252084,-0.97676 c 0.1179,-0.30725 0.36936,-0.55864 0.5588,-0.55864 0.46369,0 0.17333,0.80178 -0.35401,0.97757 -0.25779,0.0859 -0.33663,-0.0754 -0.20479,-0.41893 z M 161.2737,190.51858 c 0.5075,-0.31695 0.89079,-0.32283 1.5472,-0.0238 0.91457,0.4167 2.35471,0.23222 2.35471,-0.30164 0,-0.1714 -0.25908,-0.31164 -0.57572,-0.31164 -0.31665,0 -1.09579,-0.32141 -1.73142,-0.71425 -1.06702,-0.65946 -1.34874,-0.68239 -3.67143,-0.2988 -1.88974,0.31208 -3.1048,0.31686 -4.88316,0.0192 -4.27984,-0.71637 -5.01327,-0.75766 -5.01327,-0.2822 0,0.42221 4.72849,1.25926 7.27193,1.28728 0.56009,0.006 1.3265,0.2443 1.70313,0.52917 0.82888,0.62693 2.0841,0.66739 2.99803,0.0966 z m 5.99486,-2.08143 c -0.55926,-0.78542 -0.93193,-0.98469 -1.58823,-0.84924 -0.47162,0.0973 -1.24877,0.25797 -1.72699,0.35696 -1.09761,0.22721 -0.84701,1.05565 0.4568,1.51016 0.51802,0.18058 1.08286,0.33687 1.25519,0.3473 0.17234,0.0104 0.44772,0.23096 0.61196,0.49007 0.22333,0.35231 0.29999,0.35991 0.30403,0.0301 0.008,-0.68665 0.70815,-0.51834 0.73332,0.17639 0.0165,0.4567 0.10853,0.40229 0.35351,-0.2091 0.25566,-0.63807 0.16458,-1.06037 -0.39959,-1.85267 z m -133.631844,-0.0549 c -0.11449,-0.71592 -0.23524,-0.90692 -0.32151,-0.50856 -0.13132,0.60634 0.10852,1.65509 0.3785,1.65509 0.0695,0 0.0439,-0.51594 -0.057,-1.14653 z m 92.097144,-5.73264 c -0.0199,-1.3582 -0.28402,-3.10445 -0.58683,-3.88056 l -0.55058,-1.41111 0.1987,1.89205 c 0.10928,1.04062 0.21444,3.81875 0.23369,6.17361 0.0344,4.20571 0.0413,4.24094 0.38813,1.98851 0.19423,-1.26118 0.33682,-3.40431 0.31689,-4.7625 z m -1.1331,4.85069 c -0.003,-0.53357 -0.15929,-1.20826 -0.34738,-1.4993 -0.26787,-0.41451 -0.34314,-0.3252 -0.34737,0.41212 -0.003,0.51771 -0.10176,1.19239 -0.21954,1.4993 -0.14051,0.36618 -0.0192,0.55802 0.35278,0.55802 0.38458,0 0.56517,-0.31203 0.56151,-0.97014 z m -59.474534,-0.74256 c 0.5618,-0.3192 1.33896,-1.00635 1.72703,-1.527 0.67119,-0.9005 0.67728,-1.00629 0.12507,-2.16998 -0.31928,-0.67284 -0.58051,-1.55653 -0.58051,-1.96377 0,-0.80219 -0.85077,-1.00891 -1.28182,-0.31145 -0.14582,0.23595 -0.35632,0.99001 -0.46778,1.6757 -0.11145,0.68569 -0.3587,1.26041 -0.54944,1.27717 -1.2088,0.1062 -1.54028,0.60663 -1.52712,2.30549 0.0126,1.62088 0.0684,1.73063 0.77332,1.52058 0.41788,-0.12452 1.21944,-0.48755 1.78125,-0.80674 z m 80.127244,-2.39401 c -0.01,-1.64133 -0.21341,-1.92461 -1.72292,-2.39751 -0.47933,-0.15016 -0.60005,-0.42319 -0.45053,-1.01893 0.2325,-0.92634 -0.60711,-2.35463 -1.38414,-2.35463 -0.32149,0 -0.50916,0.36117 -0.50916,0.97984 0,0.53892 -0.24546,1.33029 -0.54547,1.75861 -0.50563,0.72189 -0.4802,0.87484 0.34817,2.09389 0.73656,1.08395 2.88781,2.42927 4.08766,2.55629 0.10241,0.0108 0.18178,-0.71706 0.17639,-1.61756 z M 33.274056,178.92848 c -0.27299,-0.68364 -0.35009,-0.30412 -0.36776,1.81025 -0.0123,1.47138 0.0967,2.79544 0.24222,2.94237 0.40643,0.41035 0.51691,-3.77249 0.12554,-4.75262 z m 83.017774,0.39632 c 0.41733,-0.46114 0.57635,-1.10889 0.49565,-2.019 -0.10358,-1.16815 0.006,-1.40026 0.85132,-1.80972 0.53358,-0.25833 0.97014,-0.5998 0.97014,-0.75883 0,-0.34435 -7.23211,-0.66311 -10.19025,-0.44914 -1.83021,0.13239 -2.13018,0.26098 -2.49949,1.07153 -0.32066,0.70378 -0.32189,0.95368 -0.005,1.05925 0.40767,0.13589 1.70136,1.47789 2.5704,2.66637 0.41135,0.56256 0.53665,0.5416 1.77149,-0.29639 0.73085,-0.49597 1.44083,-0.89531 1.57774,-0.88742 0.1369,0.008 0.79854,0.48413 1.47031,1.05833 1.42371,1.21693 2.13795,1.30418 2.98788,0.36502 z m -13.92308,-0.70894 c 0.20086,-0.3753 0.36519,-0.96193 0.36519,-1.30362 0,-0.34168 0.42758,-1.06754 0.95018,-1.61301 1.24335,-1.29778 0.77661,-1.7386 -1.54916,-1.46315 -1.32559,0.157 -1.76383,0.34343 -1.62959,0.69326 0.11107,0.28945 -0.18259,0.61775 -0.743224,0.8309 -1.48431,0.56434 -1.54044,1.38609 -0.17218,2.52078 1.416234,1.17448 2.274094,1.27785 2.778784,0.33484 z m -25.708264,-1.572 c -0.33864,-0.40804 -0.25723,-0.63122 0.41529,-1.1385 l 0.83649,-0.63097 -0.8682,-0.74679 c -0.47751,-0.41074 -1.0442,-1.28582 -1.25931,-1.94462 -0.51783,-1.58597 -2.43217,-2.87811 -4.05677,-2.73827 -1.17063,0.10076 -2.05737,0.98684 -0.98758,0.98684 0.28645,0 0.61219,0.23813 0.72388,0.52917 0.11168,0.29104 0.60016,0.52917 1.08551,0.52917 0.57144,0 1.15823,0.373 1.66492,1.05833 0.43035,0.58208 0.95254,1.05833 1.16042,1.05833 0.20788,0 0.59494,0.34744 0.86014,0.77208 0.42904,0.68701 0.39867,0.83969 -0.27563,1.38571 l -0.7578,0.61363 0.78017,0.54645 c 0.89904,0.62972 1.29727,0.46504 0.67847,-0.28056 z m 2.08456,-0.58868 c 0,-0.18258 -0.23813,-0.33196 -0.52917,-0.33196 -0.54554,0 -0.70086,0.41626 -0.30357,0.81356 0.28184,0.28184 0.83274,-0.0368 0.83274,-0.4816 z m 52.939864,-0.69715 c 0.87749,-0.46962 0.86858,-0.93927 -0.0232,-1.22231 -0.38805,-0.12317 -0.70555,-0.37017 -0.70555,-0.54891 0,-0.49676 1.1624,-1.74415 1.62533,-1.74415 0.2256,0 0.67023,-0.39687 0.98806,-0.88194 0.39421,-0.60164 0.89966,-0.88194 1.59033,-0.88194 0.57453,0 1.10029,-0.22889 1.21552,-0.52917 0.11168,-0.29104 0.45939,-0.52917 0.77269,-0.52917 1.03025,0 0.30527,-0.87944 -0.81677,-0.99081 -1.79748,-0.17841 -4.31684,1.37605 -4.31684,2.6635 0,0.36562 -0.47152,1.1165 -1.04782,1.66863 l -1.04783,1.00388 0.74275,0.64418 c 0.6123,0.53105 0.66483,0.73809 0.29907,1.1788 -0.51646,0.6223 -0.24197,0.68651 0.72424,0.16941 z m -1.86793,-0.75929 c -0.21804,-0.65413 -0.97748,-0.76262 -0.97748,-0.13964 0,0.30721 0.25135,0.55856 0.55856,0.55856 0.30721,0 0.49573,-0.18851 0.41892,-0.41892 z m -56.872004,-1.88535 c -0.37663,-0.28487 -0.93226,-0.49953 -1.23472,-0.47703 -0.42725,0.0318 -0.41221,0.0769 0.0674,0.20226 0.33955,0.0887 0.61736,0.30844 0.61736,0.48824 0,0.17981 0.27781,0.32187 0.61736,0.3157 0.55861,-0.0102 0.55219,-0.0605 -0.0674,-0.52917 z m -4.38138,-0.88246 c -0.75638,-0.63013 -1.813,-0.93826 -1.813,-0.5287 0,0.22787 1.8593,1.21719 2.29306,1.22013 0.19402,0.001 -0.022,-0.30983 -0.48006,-0.69143 z m 2.06756,0.0117 c 0,-0.19402 -0.15875,-0.35277 -0.35278,-0.35277 -0.19403,0 -0.35278,0.15875 -0.35278,0.35277 0,0.19403 0.15875,0.35278 0.35278,0.35278 0.19403,0 0.35278,-0.15875 0.35278,-0.35278 z m 64.793524,-0.49553 c 0,-0.27254 -0.21166,-0.41431 -0.47037,-0.31503 -0.2587,0.0993 -0.47037,0.32226 -0.47037,0.49553 0,0.17327 0.21167,0.31503 0.47037,0.31503 0.25871,0 0.47037,-0.22299 0.47037,-0.49553 z m 1.17593,-0.0128 c 0,-0.0856 -0.15875,-0.25368 -0.35278,-0.3736 -0.19403,-0.11992 -0.35278,-0.0499 -0.35278,0.15557 0,0.20548 0.15875,0.3736 0.35278,0.3736 0.19403,0 0.35278,-0.07 0.35278,-0.15557 z m 3.32563,-0.73395 c 0.37389,-0.28287 0.58779,-0.60632 0.47533,-0.71878 -0.24318,-0.24318 -1.6843,0.60183 -1.6843,0.9876 0,0.40449 0.45176,0.30404 1.20897,-0.26882 z m -2.2673,-0.16882 c 0,-0.19402 -0.07,-0.35277 -0.15557,-0.35277 -0.0856,0 -0.25368,0.15875 -0.3736,0.35277 -0.11991,0.19403 -0.0499,0.35278 0.15557,0.35278 0.20548,0 0.3736,-0.15875 0.3736,-0.35278 z"
                style="fill:#000000;stroke-width:0.35277778"/>
    </g>
</svg>
